# xmcd
#
# Track frame offsets:
#	150
#	31098
#	54469
#	89082
#	117064
#	146788
#	181799
#	206078
#	249717
#	282117
#	317742
#
# Disc length: 4544 seconds
#
# Revision: 0
# Processed by: cddbd v1.5.2PL0 Copyright (c) Steve Scherf et al.
# Submitted via: audiograbber 1.83.01
#
DISCID=9d11be0b
DTITLE=Mark Knopfler - Live in Malmoe 2011
DYEAR=2011
DGENRE=Rock
TTITLE0=What it is
TTITLE1=Cleaning my Gun
TTITLE2=Sailing to Philadelphia
TTITLE3=Hill Farmer's Blues
TTITLE4=Privatering
TTITLE5=Song from Sonny Liston
TTITLE6=Done with Bonaparte
TTITLE7=Marbletown
TTITLE8=Brothers in Arms
TTITLE9=Speedway at Nazareth
TTITLE10=So far Away
EXTD=
EXTT0=
EXTT1=
EXTT2=
EXTT3=
EXTT4=
EXTT5=
EXTT6=
EXTT7=
EXTT8=
EXTT9=
EXTT10=
PLAYORDER=
